/* XPM */
static char *dummy[]={
"32 32 201 2",
"Qt c None",
"am c #000000",
"ag c #000000",
".# c #010101",
"af c #000000",
".A c #010101",
"ar c #000000",
"aV c #000000",
"a9 c #010101",
".X c #010101",
"bg c #010101",
"ab c #010101",
".l c #060606",
"as c #050505",
".q c #060606",
"a8 c #000000",
"al c #010101",
".M c #050505",
"aU c #050505",
"av c #050505",
"#2 c #0b0b0b",
".a c #0c0c0c",
".r c #0d0d0d",
".G c #0d0d0d",
"aI c #0b0b0b",
".J c #0d0d0d",
".v c #0f0f0f",
"b. c #0a0a0a",
"#i c #0b0b0b",
"bf c #0a0a0a",
"#8 c #0a0a0a",
"#U c #131313",
"#j c #141414",
".b c #151515",
"az c #0b0b0b",
"aO c #0d0d0d",
".B c #161616",
"aA c #151515",
".w c #171717",
"b# c #111111",
".z c #171717",
"#q c #121212",
"aE c #151515",
".F c #171717",
"be c #111111",
"#1 c #121212",
"#N c #1a1a1a",
"#r c #1b1b1b",
".c c #1c1c1c",
"#z c #1d1d1d",
".d c #1f1f1f",
".Y c #1e1e1e",
".e c #1f1f1f",
"ac c #1c1c1c",
"aH c #141414",
"ba c #161616",
"aD c #141414",
"#y c #181818",
"bd c #161616",
"#T c #171717",
"bb c #191919",
"bc c #191919",
"aW c #1a1a1a",
"#H c #1a1a1a",
".4 c #1c1c1c",
"#M c #1a1a1a",
"a7 c #191919",
"ae c #1b1b1b",
".N c #272727",
".m c #282828",
"an c #252525",
".p c #272727",
"aP c #232323",
".R c #262626",
"aT c #212121",
"aq c #222222",
".k c #3b3b3b",
"#9 c #383838",
".5 c #393939",
".f c #3c3c3c",
".s c #3d3d3d",
".K c #3d3d3d",
"aX c #313131",
"## c #353535",
"at c #393939",
".u c #3e3e3e",
"a6 c #303030",
"aa c #323232",
"aJ c #363636",
".L c #3b3b3b",
"au c #333333",
"aN c #343434",
"#3 c #484848",
"#a c #4a4a4a",
".g c #4d4d4d",
"aY c #424242",
"#h c #464646",
".S c #4e4e4e",
"a5 c #3f3f3f",
"#7 c #424242",
"ah c #4b4b4b",
".n c #505050",
".C c #505050",
"aB c #4a4a4a",
".E c #505050",
"aQ c #464646",
".W c #4b4b4b",
"aS c #434343",
"aC c #444444",
"ak c #454545",
"#V c #505050",
"#k c #525252",
".h c #555555",
"a4 c #484848",
"aZ c #4a4a4a",
"#p c #4f4f4f",
"#0 c #4b4b4b",
".H c #565656",
".x c #575757",
"aw c #505050",
".y c #575757",
"aF c #4f4f4f",
".I c #565656",
"aG c #494949",
"ay c #4a4a4a",
"#O c #575757",
"#s c #595959",
".i c #5c5c5c",
"a3 c #4f4f4f",
"a0 c #505050",
"#S c #535353",
"#x c #555555",
"ao c #575757",
".O c #5b5b5b",
".t c #5d5d5d",
"aK c #545454",
".Q c #5a5a5a",
"aM c #4f4f4f",
"ap c #515151",
"#A c #5a5a5a",
".j c #5f5f5f",
"a2 c #525252",
"a1 c #535353",
"#L c #565656",
"#G c #575757",
"aR c #525252",
"ad c #535353",
"#Z c #545454",
"aL c #555555",
"ax c #565656",
"a# c #575757",
"#K c #585858",
"#F c #595959",
"a. c #5a5a5a",
"#w c #5b5b5b",
".3 c #5c5c5c",
".V c #5d5d5d",
".P c #5e5e5e",
".D c #5f5f5f",
".o c #606060",
"#b c #616161",
"#g c #626262",
"#4 c #646464",
"#o c #656565",
"#B c #6e6e6e",
".U c #727272",
"#E c #797979",
"#I c #7b7b7b",
"#t c #7c7c7c",
".T c #848484",
"#. c #888888",
"#P c #898989",
".2 c #8a8a8a",
"#6 c #8d8d8d",
".Z c #8f8f8f",
"#l c #919191",
"#c c #949494",
"#Y c #9e9e9e",
"#n c #a1a1a1",
"#f c #a2a2a2",
"#W c #a3a3a3",
"#5 c #a6a6a6",
".6 c #a7a7a7",
"#R c #acacac",
"aj c #adadad",
"#v c #aeaeae",
"ai c #afafaf",
"#C c #b1b1b1",
"#J c #b8b8b8",
"#D c #c4c4c4",
"#Q c #cbcbcb",
".1 c #cdcdcd",
".9 c #d0d0d0",
".0 c #d2d2d2",
"#d c #d4d4d4",
"#X c #d6d6d6",
"#e c #d7d7d7",
"#m c #d9d9d9",
".7 c #dadada",
"#u c #dbdbdb",
".8 c #dcdcdc",
"QtQtQtQtQtQtQtQtQtQtQt.#.a.b.c.d.d.c.b.a.#QtQtQtQtQtQtQtQtQtQtQt",
"QtQtQtQtQtQtQtQtQt.#.e.f.g.h.i.j.j.i.h.g.k.e.#QtQtQtQtQtQtQtQtQt",
"QtQtQtQtQtQtQt.l.m.n.o.o.o.o.o.o.o.o.o.o.o.o.n.p.qQtQtQtQtQtQtQt",
"QtQtQtQtQtQt.r.s.t.o.o.o.o.o.o.o.o.o.o.o.o.o.o.t.u.vQtQtQtQtQtQt",
"QtQtQtQt.#.w.x.o.o.o.o.o.o.o.o.o.o.o.o.o.o.o.o.o.o.y.z.AQtQtQtQt",
"QtQtQtQt.B.C.D.D.D.D.D.D.D.D.D.D.D.D.D.D.D.D.D.D.D.D.E.FQtQtQtQt",
"QtQtQt.G.H.D.D.D.D.D.D.D.D.D.D.D.D.D.D.D.D.D.D.D.D.D.D.I.JQtQtQt",
"QtQt.l.K.D.D.D.D.D.D.D.D.D.D.D.D.D.D.D.D.D.D.D.D.D.D.D.D.L.MQtQt",
"QtQt.N.O.P.P.P.P.P.P.P.P.P.P.P.P.P.P.P.P.P.P.P.P.P.P.P.P.Q.RQtQt",
"Qt.#.S.P.P.P.P.P.P.T.U.P.P.P.P.P.P.P.P.P.P.P.P.P.P.P.P.P.V.W.XQt",
"Qt.Y.P.P.P.P.P.P.Z.0.1.2.P.P.P.P.P.P.P.P.P.P.P.P.P.P.P.P.P.3.4Qt",
".#.5.V.V.V.V.V.V.6.7.8.9#..D.V.V.V.V.V.V.V.V.V.V.V.V.V.V.V.V##.X",
".a#a.V.V.V.V.V.V#b#c#d.8#e#f#g.V.V.V.V.V.V.V.V.V.V.V.V.V.V.V#h#i",
"#j#k.V.V.V.V.V.V.V.P#l.9.8#m#n#o.V.V.V.V.V.V.V.V.V.V.V.V.V.V#p#q",
"#r#s.3.3.3.3.3.3.3.3.3#t.7.8#u#v#w.3.3.3.3.3.3.3.3.3.3.3.3.3#x#y",
"#z#A.3.3.3.3.3.3.3.3#B#C#u.8#D#E#F.3.3.3.3.3.3.3.3.3.3.3.3.3#G#H",
"#z#A.3.3.3.3.3.3.P#I.1.8#m#J.o#K.3.3.3.3.3.3.3.3.3.3.3.3.3.3#L#M",
"#N#O#w#w#w#w#w#w#P#Q.8.8#R#o#K#w#w#w#w#w#w#w#w#w#w#w#w#w#w#w#S#T",
"#U#V#w#w#w#w#w#w#W#X#d#Y#Z#K#w#w#w#w#w#w#w#w#w#w#w#w#w#w#w#w#0#1",
"#2#3#w#w#w#w#w#w#4#5#6#w#F#w#w#w#w#w#w#w#w#w#w#w#w#w#w#w#w#w#7#8",
".##9a.a.a.a.a.a.a.a.a#a.a.a.a.a..8.8.8.8.8.8.8.8#Ka.a.a.a.#Kaaab",
"Qtaca.a.a.a.a.a.a.a.a.a.a.a.a.a..8.8.8.8.8.8.8.8ada.a.a.#F#Zaeaf",
"Qtagaha.a.a.a.a.a.a.a.a.a.a.a.a.aiajajajajajajajada.a.a.a#akalam",
"QtQtanaoa.a.a.a.a.a.a.a.a.a.a.a.#Fa#a#a#a#a#a#a#a#a.a.a.apaqarQt",
"QtQtasat#F#F#F#F#F#F#F#F#F#F#F#F#F#F#F#F#F#F#F#F#F#F#K#ZauavQtQt",
"QtQtQt.Gaw#F#F#F#F#F#F#F#F#F#F#F#F#F#F#F#F#F#F#F#F#FaxayazafQtQt",
"QtQtQtQtaAaB#K#K#K#K#K#K#K#K#K#K#K#K#K#K#K#K#K#K#KaxaCaDarQtQtQt",
"QtQtQtQt.AaEaF#K#K#K#K#K#K#K#K#K#K#K#K#K#K#K#K#KadaGaHabQtQtQtQt",
"QtQtQtQtQtQtaIaJaKa##K#K#K#K#K#K#K#K#K#K#Ka#aLaMaNaOarQtQtQtQtQt",
"QtQtQtQtQtQtQt.MaPaQa##K#K#K#K#K#K#K#K#KaLaRaSaTaUafQtQtQtQtQtQt",
"QtQtQtQtQtQtQtQtQtaVaWaXaYaZa0a1a2a3a4a5a6a7a8arQtQtQtQtQtQtQtQt",
"QtQtQtQtQtQtQtQtQtQtQta9b.b#babbbcbdbebfbgafamQtQtQtQtQtQtQtQtQt"};
