/* XPM */
static char *dummy[]={
"32 32 235 2",
"Qt c None",
"aR c #000000",
".Y c #020202",
".# c #030303",
"aL c #000000",
".F c #030303",
"aZ c #000000",
"br c #020202",
"bF c #030303",
".6 c #030303",
"bO c #020202",
"aD c #030303",
".o c #0f0f0f",
".u c #0f0f0f",
"bE c #020202",
"aQ c #030303",
".Q c #0e0e0e",
"bq c #0d0d0d",
"a3 c #0d0d0d",
"#h c #1e1e1e",
".a c #1f1f1f",
".v c #212121",
"a4 c #212121",
".L c #232323",
"be c #1e1e1e",
".N c #212121",
".A c #252525",
"bG c #1b1b1b",
"#r c #1c1c1c",
"bN c #1b1b1b",
"aw c #1c1c1c",
"ad c #323232",
".e c #333333",
".b c #343434",
"a8 c #1e1e1e",
"bj c #212121",
".G c #393939",
"a9 c #373737",
".B c #3b3b3b",
"bH c #2d2d2d",
".E c #3a3a3a",
"#z c #2e2e2e",
"ba c #383838",
".K c #3a3a3a",
"bM c #2d2d2d",
"al c #2e2e2e",
"#A c #444444",
".c c #454545",
"#N c #4a4a4a",
".d c #4c4c4c",
".n c #4c4c4c",
".f c #4d4d4d",
"aE c #4a4a4a",
"bd c #343434",
"bI c #3c3c3c",
"b# c #343434",
"#M c #3d3d3d",
"bL c #3c3c3c",
"ac c #3d3d3d",
"bJ c #414141",
"bK c #414141",
"bs c #454545",
"#Y c #434343",
"#b c #474747",
"#5 c #434343",
"bD c #444444",
"aK c #454545",
".p c #636363",
"aS c #606060",
".t c #636363",
"bk c #5c5c5c",
".X c #5e5e5e",
"bp c #575757",
"aY c #575757",
".m c #929292",
"ax c #8e8e8e",
"#c c #909090",
".g c #939393",
".w c #979797",
".O c #989898",
"bt c #828282",
"#g c #868686",
"a0 c #939393",
".z c #9a9a9a",
"bC c #7e7e7e",
"aC c #808080",
"bf c #8e8e8e",
".P c #949494",
"a2 c #858585",
"bi c #878787",
"am c #b9b9b9",
"#i c #bababa",
".h c #bdbdbd",
"bu c #adadad",
"#q c #b2b2b2",
".Z c #c4c4c4",
"bB c #a6a6a6",
"av c #a9a9a9",
"aM c #c0c0c0",
".s c #c5c5c5",
".q c #c6c6c6",
".H c #c6c6c6",
"b. c #c1c1c1",
".J c #c7c7c7",
"bl c #b8b8b8",
".5 c #bdbdbd",
"bo c #afafaf",
"aP c #b0b0b0",
"ae c #cdcdcd",
"#s c #cfcfcf",
".i c #d2d2d2",
"bA c #bdbdbd",
"bv c #c2c2c2",
"#y c #c7c7c7",
"ak c #c1c1c1",
".C c #d8d8d8",
"a5 c #d1d1d1",
".D c #d8d8d8",
"bb c #cfcfcf",
".M c #d5d5d5",
"bc c #bebebe",
"a7 c #bfbfbf",
"#6 c #dedede",
"#B c #e0e0e0",
".l c #e3e3e3",
".j c #e4e4e4",
"bz c #d0d0d0",
"bw c #d2d2d2",
"ab c #d4d4d4",
"#L c #d8d8d8",
"aT c #e0e0e0",
".R c #e4e4e4",
".y c #e5e5e5",
".x c #e6e6e6",
"bg c #dcdcdc",
".W c #e2e2e2",
"bh c #cfcfcf",
"aX c #d0d0d0",
"#O c #e6e6e6",
".k c #eaeaea",
"by c #d8d8d8",
"bx c #d9d9d9",
"#4 c #dcdcdc",
"#X c #dddddd",
".1 c #2fa32f",
".2 c #33a433",
"#v c #3692b3",
"#u c #3993b4",
"#Q c #3fa73f",
"#2 c #40a840",
"aA c #4798b6",
"au c #489ab8",
"ar c #559eb8",
"#D c #62b162",
".8 c #62b262",
"#j c #63b163",
"#d c #63b263",
"#1 c #64b264",
"#0 c #65b265",
"az c #68a6bc",
"#R c #68b668",
"aj c #69a6bc",
"#J c #69a8bf",
"#W c #6aa6bc",
"#K c #6aa7bd",
"#8 c #6ab76a",
"#P c #6cba6c",
".7 c #6dba6d",
"ai c #6eadc3",
"at c #6fadc4",
"#V c #6faec4",
"aN c #70aec4",
"as c #71aec4",
".0 c #71bc71",
"#w c #72acc2",
"ay c #76afc4",
"#9 c #7bb87b",
"#3 c #7bb97c",
"#n c #85b7ae",
"aB c #93b7c4",
"#G c #98bac6",
"ag c #99b9c5",
"a. c #9abac6",
"ap c #9ac19a",
"## c #9ac69a",
"#T c #9bbbc7",
"aV c #9cbac5",
"#Z c #9ecc9e",
"ao c #9fc69f",
"#m c #a2c7cb",
"#o c #a3c2cc",
"aO c #a7c5d0",
"#S c #a7d0a8",
"#f c #a7d1a7",
"af c #aad1aa",
".U c #add3ad",
"#l c #aeccd7",
".V c #b1d5b1",
"#k c #b2ced8",
"aq c #b3c8b3",
"aW c #bec8cb",
"aU c #bfd4db",
".T c #c5ddc5",
"#p c #c6d8df",
"an c #d3e0d3",
".9 c #d4d6d4",
"#I c #d6d8d9",
"bn c #d7d7d7",
"aJ c #d8d8d8",
"#H c #d9d9d9",
"#. c #dadada",
"a1 c #dbdbdb",
"a6 c #dedede",
"aH c #dedfdf",
"#E c #dee0de",
"aG c #dfdfdf",
"#e c #dfe0df",
"#7 c #e0e0e0",
".3 c #e1e1e1",
"bm c #e2e2e2",
"aF c #e4e4e4",
"#x c #e5e5e5",
"ah c #e5e6e7",
"aI c #e6e6e6",
"aa c #e6e7e7",
"a# c #e7e7e7",
"#U c #e7e8e8",
"#a c #e8e8e8",
"#F c #e8e9e9",
"#C c #e9e9e9",
"#t c #e9eaea",
".4 c #eaeaea",
".S c #ebebeb",
".I c #ececec",
".r c #ededed",
"QtQtQtQtQtQtQtQtQtQtQt.#.a.b.c.d.d.c.e.a.#QtQtQtQtQtQtQtQtQtQtQt",
"QtQtQtQtQtQtQtQtQt.#.f.g.h.i.j.k.k.l.i.h.m.n.#QtQtQtQtQtQtQtQtQt",
"QtQtQtQtQtQtQt.o.p.q.r.r.r.r.r.r.r.r.r.r.r.r.s.t.uQtQtQtQtQtQtQt",
"QtQtQtQtQtQt.v.w.x.r.r.r.r.r.r.r.r.r.r.r.r.r.r.y.z.AQtQtQtQtQtQt",
"QtQtQtQt.#.B.C.r.r.r.r.r.r.r.r.r.r.r.r.r.r.r.r.r.r.D.E.FQtQtQtQt",
"QtQtQtQt.G.H.I.I.I.I.I.I.I.I.I.I.I.I.I.I.I.I.I.I.I.I.J.KQtQtQtQt",
"QtQtQt.L.C.I.I.I.I.I.I.I.I.I.I.I.I.I.I.I.I.I.I.I.I.I.I.M.NQtQtQt",
"QtQt.o.O.I.I.I.I.I.I.I.I.I.I.I.I.I.I.I.I.I.I.I.I.I.I.I.I.P.QQtQt",
"QtQt.p.R.S.S.S.T.U.U.U.U.U.U.U.U.U.V.S.S.S.S.S.S.S.S.S.S.W.XQtQt",
"Qt.Y.Z.S.S.S.S.0.1.1.1.1.1.1.1.1.1.2.3.S.S.S.S.S.S.S.S.S.4.5.6Qt",
"Qt.n.S.S.S.S.S.7.8.9#.#.#.#.#.#.##.1#..S.S.S.S.S.S.S.S.S.S#a#bQt",
".##c.4.4.4.4.4.7#d#e.4.4.4.4.4.4#f.1#..4.4.4.4.4.4.4.4.4.4.4#g.6",
"#h#i.4.4.4.4.4.7#j#e.4.4.4.4#k#l#m#n#o#l#l#l#l#l#p.4.4.4.4.4#q#r",
".e#s.4.4.4.4.4.7#j#e.4.4.4#t#u#v#v#v#v#v#v#v#v#v#w#x.4.4.4.4#y#z",
"#A#B#C#C#C#C#C.7#D#E#C#C#C#F#v#G#H#H#H#H#H#H#I#J#K.3#C#C#C#C#L#M",
"#N#O#C#C#C#C#C#P#Q#R#P#P#P#S#v#T#a#C#C#C#C#C#U#V#W.3#C#C#C#C#X#Y",
"#N#O#C#C#C#C#C#Z#0#1#1#2.1#3#v#T#a#C#C#C#C#C#U#V#W.3#C#C#C#C#4#5",
"#A#6#a#a#a#a#a#a.3#7#7#8.1#9#va.a##a#a#a#a#aaa#V#W#7#a#a#a#aabac",
"adae#a#a#a#a#a#aaf.1.1.1.1#9#vaga##a#a#a#a#aahaiaj#7#a#a#a#aakal",
"#ham#a#a#a#a#a#aanaoapapapaq#varasasasasasasatauaj#7#a#a#a#aavaw",
".#axa#a#a#a#a#a#a#a#a#a#a#a#ayajazaz#v#vaAazazazaB#7a#a#a#.3aCaD",
"QtaEa#a#a#a#a#a#a#a#a#a#a#a#aFaGaGaH#v#vaj#HaGaGaGaFa#a#aIaJaKaL",
"Qt.YaMa#a#a#a#a#a#a#a#a#a#a#aaaN#v#v#v#v#v#v#vaOa#a#a#a##7aPaQaR",
"QtQtaSaTa#a#a#a#a#a#a#a#a#a#aaaUaVaVaVaVaVaVaVaWa#a#a#a#aXaYaZQt",
"QtQt.ua0aIaIaIaIaIaIaIaIaIaIaIaIaIaIaIaIaIaIaIaIaIaI#xa1a2a3QtQt",
"QtQtQta4a5aIaIaIaIaIaIaIaIaIaIaIaIaIaIaIaIaIaIaIaIaIa6a7a8aLQtQt",
"QtQtQtQta9b.#x#x#x#x#x#x#x#x#x#x#x#x#x#x#x#x#x#x#xa6aPb#aZQtQtQt",
"QtQtQtQt.Fbabb#x#x#x#x#x#x#x#x#x#x#x#x#x#x#x#x#xa1bcbdaDQtQtQtQt",
"QtQtQtQtQtQtbebfbgaF#x#x#x#x#x#x#x#x#x#x#xaFa6bhbibjaZQtQtQtQtQt",
"QtQtQtQtQtQtQt.Qbkblbm#x#x#x#x#x#x#x#x#xa6bnbobpbqaLQtQtQtQtQtQt",
"QtQtQtQtQtQtQtQtQtbrbsbtbubvbwbxbybzbAbBbCbDbEaZQtQtQtQtQtQtQtQt",
"QtQtQtQtQtQtQtQtQtQtQtbFbGbHbIbJbKbLbMbNbOaLaRQtQtQtQtQtQtQtQtQt"};
